<svg id="Ebene_1" data-name="Ebene 1" xmlns="http://www.w3.org/2000/svg" viewBox="0 0 111.72 111.72"><defs><style>.cls-1{fill:#fff;stroke:#5b5b5b;stroke-miterlimit:10;stroke-width:4px;}.cls-2{fill:#5b5b5b;}</style></defs><title>APP_Icon_WEB_Text_</title><rect class="cls-1" x="2" y="2" width="107.72" height="107.72"/><path class="cls-2" d="M8,74,21.75,38.26h5.09L41.46,74H36.08L31.91,63.16H17L13.05,74ZM18.34,59.31H30.45l-3.73-9.89Q25,44.9,24.19,42a46,46,0,0,1-1.93,6.82Z" transform="translate(-0.16 0.09)"/><path class="cls-2" d="M44.24,74V38.26H57.71a32.24,32.24,0,0,1,5.43.34,10.67,10.67,0,0,1,4.41,1.67,8.79,8.79,0,0,1,2.87,3.45A11.63,11.63,0,0,1,68.6,56.3q-2.89,3.15-10.47,3.15H49V74ZM49,55.24H58.2q4.57,0,6.5-1.71a6,6,0,0,0,1.93-4.8A6.47,6.47,0,0,0,65.5,44.9a5.31,5.31,0,0,0-3-2.11,20.26,20.26,0,0,0-4.41-.32H49Z" transform="translate(-0.16 0.09)"/><path class="cls-2" d="M76.52,74V38.26H90a32.37,32.37,0,0,1,5.44.34,10.78,10.78,0,0,1,4.41,1.67,8.77,8.77,0,0,1,2.86,3.45,11.63,11.63,0,0,1-1.82,12.58Q98,59.45,90.41,59.45H81.25V74Zm4.73-18.73h9.23q4.58,0,6.51-1.71a6.06,6.06,0,0,0,1.92-4.8,6.47,6.47,0,0,0-1.13-3.83,5.28,5.28,0,0,0-3-2.11,20.14,20.14,0,0,0-4.41-.32H81.25Z" transform="translate(-0.16 0.09)"/></svg>