<?xml version="1.0" encoding="UTF-8" standalone="no"?>
<!-- Generator: Adobe Illustrator 16.0.0, SVG Export Plug-In . SVG Version: 6.00 Build 0)  -->

<svg
   xmlns:dc="http://purl.org/dc/elements/1.1/"
   xmlns:cc="http://creativecommons.org/ns#"
   xmlns:rdf="http://www.w3.org/1999/02/22-rdf-syntax-ns#"
   xmlns:svg="http://www.w3.org/2000/svg"
   xmlns="http://www.w3.org/2000/svg"
   xmlns:xlink="http://www.w3.org/1999/xlink"
   xmlns:sodipodi="http://sodipodi.sourceforge.net/DTD/sodipodi-0.dtd"
   xmlns:inkscape="http://www.inkscape.org/namespaces/inkscape"
   version="1.1"
   id="Layer_1"
   x="0px"
   y="0px"
   width="266.893px"
   height="266.895px"
   viewBox="0 0 266.893 266.895"
   enable-background="new 0 0 266.893 266.895"
   xml:space="preserve"
   sodipodi:docname="instagram.svg"
   inkscape:version="0.92.3 (2405546, 2018-03-11)"><metadata
   id="metadata1034"><rdf:RDF><cc:Work
       rdf:about=""><dc:format>image/svg+xml</dc:format><dc:type
         rdf:resource="http://purl.org/dc/dcmitype/StillImage" /><dc:title></dc:title></cc:Work></rdf:RDF></metadata><defs
   id="defs1032"><radialGradient
     id="c"
     cx="158.429"
     cy="578.08801"
     r="65"
     xlink:href="#a"
     gradientUnits="userSpaceOnUse"
     gradientTransform="matrix(0,-3.9816112,3.7042215,0,-2069.4216,914.03307)"
     fx="158.429"
     fy="578.08801" /><linearGradient
     id="a"><stop
       offset="0"
       stop-color="#fd5"
       id="stop993" /><stop
       offset=".1"
       stop-color="#fd5"
       id="stop995" /><stop
       offset=".5"
       stop-color="#ff543e"
       id="stop997" /><stop
       offset="1"
       stop-color="#c837ab"
       id="stop999" /></linearGradient><radialGradient
     id="d"
     cx="147.694"
     cy="473.45499"
     r="65"
     xlink:href="#b"
     gradientUnits="userSpaceOnUse"
     gradientTransform="matrix(0.34942908,1.7451767,-7.1954989,1.4407471,3313.9441,-919.08747)"
     fx="147.694"
     fy="473.45499" /><linearGradient
     id="b"><stop
       offset="0"
       stop-color="#3771c8"
       id="stop986" /><stop
       stop-color="#3771c8"
       offset=".128"
       id="stop988" /><stop
       offset="1"
       stop-color="#60f"
       stop-opacity="0"
       id="stop990" /></linearGradient></defs><sodipodi:namedview
   pagecolor="#ffffff"
   bordercolor="#666666"
   borderopacity="1"
   objecttolerance="10"
   gridtolerance="10"
   guidetolerance="10"
   inkscape:pageopacity="0"
   inkscape:pageshadow="2"
   inkscape:window-width="1920"
   inkscape:window-height="1017"
   id="namedview1030"
   showgrid="false"
   inkscape:zoom="0.8842429"
   inkscape:cx="-156.06968"
   inkscape:cy="102.68062"
   inkscape:window-x="-8"
   inkscape:window-y="-8"
   inkscape:window-maximized="1"
   inkscape:current-layer="Layer_1" />


<path
   inkscape:connector-curvature="0"
   style="fill:url(#c);stroke-width:2.00890589"
   d="m 133.20719,1.9817876 c -54.525725,0 -70.47242,0.056249 -73.572162,0.3133893 C 48.445422,3.2253004 41.482554,4.9871108 33.896926,8.763854 28.05101,11.666722 23.440571,15.03164 18.890399,19.748552 10.603661,28.350687 5.5813969,38.933603 3.763337,51.513372 2.8794185,57.620446 2.6222785,58.865967 2.5700469,90.060258 c -0.020089,10.398092 0,24.082772 0,42.438142 0,54.48152 0.060267,70.41215 0.3214249,73.50586 0.9040077,10.88828 2.6115777,17.73865 6.2276083,25.23186 6.9106369,14.34359 20.1091489,25.11133 35.6580799,29.12914 5.383868,1.38614 11.330229,2.14953 18.964071,2.51113 3.234338,0.14062 36.200486,0.24107 69.186719,0.24107 32.98624,0 65.97247,-0.0402 69.12645,-0.20089 8.83916,-0.41584 13.97192,-1.10489 19.64708,-2.5714 15.64938,-4.0379 28.60682,-14.64492 35.65808,-29.1894 3.54571,-7.31242 5.34368,-14.42394 6.15729,-24.74369 0.17679,-2.24998 0.25112,-38.12302 0.25112,-73.94783 0,-35.830852 -0.0803,-71.637591 -0.25714,-73.887565 C 262.68718,48.090197 260.8892,41.038937 257.22898,33.585895 254.22566,27.484848 250.89088,22.92865 246.04942,18.269998 237.40911,10.017411 226.84227,4.9951464 214.25045,3.1790956 208.1494,2.2971858 206.93401,2.0360281 175.71564,1.9817876 Z"
   id="path1006" /><path
   inkscape:connector-curvature="0"
   style="fill:url(#d);stroke-width:2.00890589"
   d="m 133.20719,1.9817876 c -54.525725,0 -70.47242,0.056249 -73.572162,0.3133893 C 48.445422,3.2253004 41.482554,4.9871108 33.896926,8.763854 28.05101,11.666722 23.440571,15.03164 18.890399,19.748552 10.603661,28.350687 5.5813969,38.933603 3.763337,51.513372 2.8794185,57.620446 2.6222785,58.865967 2.5700469,90.060258 c -0.020089,10.398092 0,24.082772 0,42.438142 0,54.48152 0.060267,70.41215 0.3214249,73.50586 0.9040077,10.88828 2.6115777,17.73865 6.2276083,25.23186 6.9106369,14.34359 20.1091489,25.11133 35.6580799,29.12914 5.383868,1.38614 11.330229,2.14953 18.964071,2.51113 3.234338,0.14062 36.200486,0.24107 69.186719,0.24107 32.98624,0 65.97247,-0.0402 69.12645,-0.20089 8.83916,-0.41584 13.97192,-1.10489 19.64708,-2.5714 15.64938,-4.0379 28.60682,-14.64492 35.65808,-29.1894 3.54571,-7.31242 5.34368,-14.42394 6.15729,-24.74369 0.17679,-2.24998 0.25112,-38.12302 0.25112,-73.94783 0,-35.830852 -0.0803,-71.637591 -0.25714,-73.887565 C 262.68718,48.090197 260.8892,41.038937 257.22898,33.585895 254.22566,27.484848 250.89088,22.92865 246.04942,18.269998 237.40911,10.017411 226.84227,4.9951464 214.25045,3.1790956 208.1494,2.2971858 206.93401,2.0360281 175.71564,1.9817876 Z"
   id="path1008" /><path
   inkscape:connector-curvature="0"
   style="fill:#ffffff;stroke-width:2.00890589"
   d="m 133.14692,36.133188 c -26.1881,0 -29.47467,0.114509 -39.760265,0.582583 -10.265509,0.470084 -17.272572,2.095289 -23.403753,4.47986 -6.342116,2.462919 -11.721965,5.757524 -17.081727,11.119294 -5.363779,5.359761 -8.658385,10.739612 -11.129338,17.079718 -2.390598,6.13319 -4.017812,13.142262 -4.479861,23.403754 -0.460039,10.285593 -0.580573,13.574183 -0.580573,39.762283 0,26.18809 0.116517,29.46462 0.582583,39.75021 0.472092,10.26551 2.097297,17.27257 4.479859,23.40376 2.464928,6.34211 5.759533,11.72197 11.121303,17.08172 5.357752,5.36378 10.737602,8.66643 17.075701,11.12935 6.135199,2.38457 13.144271,4.00977 23.407771,4.47985 10.2856,0.46808 13.57016,0.58259 39.75625,0.58259 26.1901,0 29.46663,-0.11451 39.75223,-0.58259 10.2655,-0.47008 17.2806,-2.09528 23.4158,-4.47985 6.34011,-2.46292 11.7119,-5.76557 17.06965,-11.12935 5.36378,-5.35975 8.65838,-10.73961 11.12934,-17.07971 2.37051,-6.1332 3.99773,-13.14227 4.47986,-23.40376 0.46205,-10.2856 0.58259,-13.56413 0.58259,-39.75222 0,-26.1881 -0.12054,-29.47467 -0.58259,-39.760274 -0.48213,-10.265509 -2.10935,-17.272573 -4.47986,-23.403754 -2.47096,-6.342115 -5.76556,-11.721966 -11.12934,-17.081727 -5.36378,-5.363778 -10.72753,-8.658384 -17.07568,-11.119294 -6.14725,-2.384571 -13.15833,-4.009776 -23.42383,-4.47986 -10.2856,-0.468074 -13.56012,-0.582583 -39.75625,-0.582583 z m -8.65035,17.377037 c 2.56738,-0.0041 5.43208,0 8.65035,0 25.74614,0 28.79766,0.09241 38.96474,0.554457 9.40168,0.429906 14.5043,2.000871 17.90337,3.320722 4.49995,1.747748 7.70817,3.837011 11.08113,7.211972 3.37493,3.374962 5.4642,6.589212 7.21596,11.089161 1.31985,3.39505 2.89282,8.497671 3.32072,17.899351 0.46205,10.165062 0.56249,13.218602 0.56249,38.952692 0,25.73407 -0.10044,28.78761 -0.56249,38.95268 -0.4299,9.40167 -2.00087,14.5043 -3.32072,17.89935 -1.74775,4.49995 -3.84103,7.70415 -7.21596,11.07711 -3.37497,3.37496 -6.57917,5.46423 -11.08113,7.21197 -3.39505,1.32588 -8.50169,2.89282 -17.90337,3.32274 -10.16506,0.46204 -13.2186,0.56249 -38.96474,0.56249 -25.74815,0 -28.79968,-0.10045 -38.964737,-0.56249 -9.40168,-0.43393 -14.504302,-2.00489 -17.905379,-3.32475 -4.499949,-1.74775 -7.714198,-3.83701 -11.08916,-7.21197 -3.374962,-3.37497 -5.464225,-6.58118 -7.21599,-11.08314 -1.319852,-3.39505 -2.892825,-8.49767 -3.320722,-17.89934 -0.462048,-10.16507 -0.554458,-13.21861 -0.554458,-38.96876 0,-25.75016 0.09241,-28.78762 0.554458,-38.952689 0.429906,-9.401679 2.00087,-14.5043 3.320722,-17.90337 1.747748,-4.499948 3.841028,-7.714198 7.21599,-11.089159 3.374962,-3.374963 6.589211,-5.464225 11.08916,-7.21599 3.399069,-1.325879 8.503699,-2.892825 17.905379,-3.32474 8.895427,-0.401781 12.342717,-0.522315 30.314387,-0.542404 z m 60.12254,16.010979 c -6.38832,0 -11.5713,5.176951 -11.5713,11.56728 0,6.388321 5.18298,11.571298 11.5713,11.571298 6.38832,0 11.5713,-5.182977 11.5713,-11.571298 0,-6.38832 -5.18298,-11.571298 -11.5713,-11.571298 z m -51.47219,13.519937 c -27.34724,0 -49.519529,22.172299 -49.519529,49.519539 0,27.34722 22.172289,49.50947 49.519529,49.50947 27.34724,0 49.51149,-22.16225 49.51149,-49.50947 0,-27.34724 -22.16627,-49.519539 -49.5135,-49.519539 z m 0,17.377029 c 17.75069,0 32.14249,14.3898 32.14249,32.14251 0,17.75068 -14.3918,32.14249 -32.14249,32.14249 -17.7527,0 -32.14249,-14.39181 -32.14249,-32.14249 0,-17.75271 14.38979,-32.14251 32.14249,-32.14251 z"
   id="path1010" /></svg>