<?xml version="1.0" encoding="utf-8"?>
<!-- Generator: Adobe Illustrator 27.0.0, SVG Export Plug-In . SVG Version: 6.00 Build 0)  -->
<svg version="1.1" id="Ebene_1" xmlns="http://www.w3.org/2000/svg" xmlns:xlink="http://www.w3.org/1999/xlink" x="0px" y="0px"
	 viewBox="0 0 1080 840" style="enable-background:new 0 0 1080 840;" xml:space="preserve">
<style type="text/css">
	.st0{fill:#FFFFFF;}
	.st1{fill:#132843;}
</style>
<g>
	<g>
		<path class="st1" d="M600,834c-19.6,0-24-19-24-25.6V90.1c0-7.7,3.7-14.9,9.9-19.4c0.6-0.3,1.5-0.9,3-1.8
			C652,29.8,730.3,7.5,809.5,6.1c1.1,0,2.3,0,3.5,0c69.2,0,148.6,18.8,229.7,54.4c17.8,7.9,29.6,26.3,31.3,49.4V780
			c0,13.1-10.9,24.2-23.9,24.2c-3.3,0-6.6-0.7-9.7-2.2c-63.6-29.8-128.6-44.9-193.3-44.9c-57.1,0-112.8,11.5-165.5,34.3
			c-40.4,17.5-64.4,35.5-67.1,37.5C610.5,832.2,605.3,834,600,834z M480,834c-5.4,0-10.4-1.7-14.6-4.9
			c-9.8-7.4-99.3-71.8-232.7-71.8c-64.6,0-129.6,15.1-193.2,44.9c-3.1,1.5-6.3,2.2-9.7,2.2c-6.1,0-12.1-2.5-16.6-6.9
			C8.6,792.7,6,786.6,6,780V109.6c0-21.5,12.3-40.8,31.3-49.2C118.2,24.8,196.3,6,263.3,6c2.4,0,4.8,0,7.2,0.1
			c135.7,2.5,222.5,63.7,223.3,64.3c6.4,4.5,10.2,11.9,10.2,19.7V810C504,815.1,499.9,834,480,834z"/>
		<path class="st0" d="M263.3,12L263.3,12c2.4,0,4.7,0,7.1,0.1c133.8,2.4,219.1,62.6,219.9,63.2l0,0l0,0c4.8,3.4,7.6,8.9,7.6,14.7
			V810c0,0.2-1.1,18-18,18c-4,0-7.8-1.3-10.9-3.7l-0.1,0l-0.1,0c-6.4-4.8-30.1-21.7-68.3-38.2c-53.5-23.1-109.9-34.8-167.9-34.8
			c-65.5,0-131.3,15.3-195.7,45.4c-2.3,1.1-4.7,1.6-7.1,1.6c-8.6,0-17.9-7.3-17.9-18.2V109.6c0-19.1,10.9-36.3,27.7-43.7
			C119.8,30.6,197.1,12,263.3,12 M813,12c68.3,0,146.9,18.6,227.2,53.9c15.7,6.9,26.1,23.4,27.8,44.1v670c0,10.9-9.2,18.2-17.9,18.2
			c-2.4,0-4.8-0.5-7.1-1.6c-64.4-30.2-130.3-45.5-195.8-45.5c-58,0-114.4,11.7-167.9,34.8c-41.1,17.8-65.7,36.2-68.4,38.3
			c-3.1,2.4-7,3.7-11,3.7c-6.3,0-10.7-2.2-13.9-6.9c-3.3-4.7-4.1-10.4-4.1-12.7V90.1c0-5.7,2.7-11,7.2-14.4c0.7-0.4,1.6-0.9,2.9-1.8
			c62.2-38.5,139.4-60.5,217.5-61.9C810.7,12,811.9,12,813,12L813,12 M263.3,0C194.8,0,116.5,19,34.9,54.9C13.5,64.3,0,86.2,0,109.6
			V780c0,17.2,14.2,30.2,29.9,30.2c4,0,8.2-0.9,12.2-2.8c69.8-32.7,134.2-44.3,190.6-44.3c134.9,0,223.7,66.6,229,70.6
			c5.3,4.1,11.7,6.2,18.3,6.2c23.2,0,30-21.3,30-30V90.1c0-9.8-4.7-18.9-12.7-24.5c-3.6-2.6-91-63-226.7-65.5
			C268.1,0,265.7,0,263.3,0L263.3,0z M813,0c-1.2,0-2.4,0-3.6,0C673.6,2.5,588,63,582.7,65.5c-8.1,5.6-12.7,14.8-12.7,24.5v718.3
			c0,9.9,6.6,31.6,30,31.6c6.5,0,13-2.1,18.3-6.2c5.2-4,93.9-70.6,228.9-70.6c56.4,0,120.9,11.6,190.7,44.3c4,1.9,8.2,2.7,12.2,2.7
			c15.7,0,29.9-13,29.9-30.2V109.5c-1.7-23.3-13.6-45.2-34.9-54.6C961.9,18.4,882,0,813,0L813,0z"/>
	</g>
</g>
<g>
	<path class="st0" d="M388.9,407.3c7.3,8,11.9,18.6,11.9,30.3c0,21.9-15.8,40.2-36.7,44.1c4.2,6.8,6.7,14.7,6.7,23.3
		c0,20.1-13.1,36.7-31.2,42.6c0.7,3.2,1.2,6.5,1.2,9.9c0,24.9-20.1,45-45,45h-55c-32.4,0-64-10.5-90-30l-32-24
		c-11.3-8.5-18-21.8-18-36l0.1-150c0,0,0,0,0,0c0.1-13.1,5.7-26.2,16.8-35.1l15.3-12.2c76.7-61.4,42.3-132.7,101.4-132.7
		c29.1,0,46.4,23,46.4,45.1c0,14.2-11,54.5-32.4,90h137.3c24.9,0,45,20.1,45,45C430.8,386.4,412.2,405.7,388.9,407.3z"/>
</g>
<path class="st0" d="M988.7,191.8H661.3c-6.9,0-12.5-5.6-12.5-12.5s5.6-12.5,12.5-12.5h327.4c6.9,0,12.5,5.6,12.5,12.5
	S995.6,191.8,988.7,191.8z"/>
<path class="st0" d="M988.7,338H661.3c-6.9,0-12.5-5.6-12.5-12.5s5.6-12.5,12.5-12.5h327.4c6.9,0,12.5,5.6,12.5,12.5
	S995.6,338,988.7,338z"/>
<path class="st0" d="M988.7,486.6H661.3c-6.9,0-12.5-5.6-12.5-12.5s5.6-12.5,12.5-12.5h327.4c6.9,0,12.5,5.6,12.5,12.5
	S995.6,486.6,988.7,486.6z"/>
<path class="st0" d="M988.7,635.3H661.3c-6.9,0-12.5-5.6-12.5-12.5s5.6-12.5,12.5-12.5h327.4c6.9,0,12.5,5.6,12.5,12.5
	S995.6,635.3,988.7,635.3z"/>
</svg>
