<?xml version="1.0" encoding="utf-8"?>
<!-- Generator: Adobe Illustrator 26.2.1, SVG Export Plug-In . SVG Version: 6.00 Build 0)  -->
<svg version="1.1" id="Ebene_1" xmlns="http://www.w3.org/2000/svg" xmlns:xlink="http://www.w3.org/1999/xlink" x="0px" y="0px"
	 viewBox="0 0 1080 1080" style="enable-background:new 0 0 1080 1080;" xml:space="preserve">
<style type="text/css">
	.st0{fill:#132843;}
</style>
<g>
	<path class="st0" d="M1030.5444336,1080H49.8019066c-27.3657646,0-49.6292992-22.2623291-49.6292992-49.6281738V49.6292992
		C0.1726074,22.2635345,22.436142,0,49.8019066,0h980.7425537c27.3658447,0,49.6281738,22.2635345,49.6281738,49.6292992
		v980.7425537C1080.1726074,1057.7376709,1057.9102783,1080,1030.5444336,1080z M77.0196304,1003.1529541h926.3059082V76.847023
		H77.0196304V1003.1529541z"/>
	<g>
		<path class="st0" d="M478.6140747,765.5304565c0,17.6859741-14.3339233,32.0198975-32.019928,32.0198975H190.4347229
			c-17.6860199,0-32.019928-14.3339233-32.019928-32.0198975V381.2912903c0-17.6735229,14.3339081-32.0074463,32.019928-32.0074463
			h256.1594238c17.6860046,0,32.019928,14.3339233,32.019928,32.019928c0,17.6735229-14.3339233,32.019928-32.019928,32.019928
			H222.4546509v128.0797424h160.0996399c17.6860046,0,32.019928,14.3214111,32.019928,32.0073853
			c0,17.6860352-14.3339233,32.0324707-32.019928,32.0324707H222.4546509v128.0797119h224.1394958
			C464.3051758,733.510498,478.6140747,747.819397,478.6140747,765.5304565z"/>
		<path class="st0" d="M914.085144,381.303772v384.2391357c0,13.4708862-8.4428101,25.5159302-21.100647,30.1062622
			c-3.6147461,1.3008423-7.21698,1.9011841-10.9193115,1.9011841c-9.3182983,0-18.3864136-4.0775146-24.6027832-11.5321655
			L593.8858032,469.7463379v295.7841187c0,17.6859741-14.3214111,32.0198975-32.0198975,32.0198975
			c-17.6985474,0-32.0199585-14.3339233-32.0199585-32.0198975V381.2912903c0-13.4833984,8.442749-25.5158997,21.100647-30.1062622
			c12.6328735-4.5152893,26.854248-0.7504578,35.5220947,9.6184998l263.5765991,316.2718506V381.2912903
			c0-17.6860352,14.3214111-32.0199585,32.0198975-32.0199585
			C899.7637329,349.2713318,914.085144,363.6177673,914.085144,381.303772z"/>
	</g>
</g>
</svg>
