<?xml version="1.0" encoding="UTF-8"?>
<!-- Generator: Adobe Illustrator 25.2.1, SVG Export Plug-In . SVG Version: 6.00 Build 0)  -->
<svg version="1.1" id="Ebene_1" xmlns="http://www.w3.org/2000/svg" xmlns:xlink="http://www.w3.org/1999/xlink" x="0px" y="0px" viewBox="0 0 283.4645691 78.230957" style="enable-background:new 0 0 283.4645691 78.230957;" xml:space="preserve">
  <style type="text/css">
    .st0 {
      fill: white;
    }
  </style>
  <g>
    <g>
      <path class="st0" d="M152.6853027,35.7973633v6.0756836h-3.2109375V24.612793h5.6220703    c1.1533203,0,2.1523438,0.1352539,2.9960938,0.4057617c0.8427734,0.2705078,1.5400391,0.6484375,2.0888672,1.1337891    s0.9550781,1.0664062,1.2177734,1.7426758c0.2617188,0.6767578,0.3935547,1.4165039,0.3935547,2.2202148    c0,0.8359375-0.1396484,1.6015625-0.4179688,2.2978516c-0.2783203,0.6967773-0.6962891,1.2954102-1.2529297,1.7963867    c-0.5576172,0.5014648-1.2539062,0.8916016-2.0888672,1.1699219c-0.8359375,0.2788086-1.8144531,0.4179688-2.9365234,0.4179688    H152.6853027z M152.6853027,33.2905273h2.4111328c0.5888672,0,1.1015625-0.0732422,1.5400391-0.2207031    c0.4375-0.1474609,0.7988281-0.3583984,1.0859375-0.6328125c0.2861328-0.2744141,0.5009766-0.6088867,0.6445312-1.0024414    c0.1435547-0.394043,0.2148438-0.8334961,0.2148438-1.3193359c0-0.4614258-0.0712891-0.8789062-0.2148438-1.253418    c-0.1435547-0.3735352-0.3583984-0.6918945-0.6445312-0.9545898c-0.2871094-0.2626953-0.6484375-0.4633789-1.0859375-0.6030273    c-0.4384766-0.1391602-0.9511719-0.2089844-1.5400391-0.2089844h-2.4111328V33.2905273z"/>
      <path class="st0" d="M176.7731934,41.8730469h-1.3251953c-0.2783203,0-0.4970703-0.0419922-0.65625-0.1254883    s-0.2783203-0.2524414-0.3583984-0.5073242l-0.2626953-0.8710938c-0.3105469,0.2783203-0.6142578,0.5234375-0.9130859,0.7338867    c-0.2978516,0.2109375-0.6064453,0.3881836-0.9248047,0.53125s-0.65625,0.2504883-1.0146484,0.3222656    s-0.7558594,0.1074219-1.1933594,0.1074219c-0.5175781,0-0.9951172-0.0698242-1.4326172-0.2094727    s-0.8134766-0.3491211-1.1279297-0.628418c-0.3144531-0.2797852-0.5595703-0.6269531-0.734375-1.0424805    c-0.1748047-0.4150391-0.2626953-0.8979492-0.2626953-1.4487305c0-0.4633789,0.1210938-0.9204102,0.3642578-1.371582    c0.2421875-0.4511719,0.6464844-0.8583984,1.2119141-1.2216797c0.5644531-0.3632812,1.3164062-0.6645508,2.2558594-0.9042969    c0.9384766-0.2392578,2.1044922-0.359375,3.4970703-0.359375v-0.7211914c0-0.8261719-0.1728516-1.4375-0.5195312-1.8344727    c-0.3457031-0.3969727-0.8496094-0.5952148-1.5097656-0.5952148c-0.4775391,0-0.875,0.0556641-1.1933594,0.1669922    s-0.5947266,0.2368164-0.8300781,0.3759766c-0.234375,0.1391602-0.4511719,0.2646484-0.6503906,0.3759766    s-0.4179688,0.1669922-0.65625,0.1669922c-0.1992188,0-0.3701172-0.0517578-0.5136719-0.1552734    c-0.1425781-0.1030273-0.2587891-0.2304688-0.3457031-0.3818359l-0.5371094-0.9428711    c1.4082031-1.2890625,3.1074219-1.9335938,5.0966797-1.9335938c0.7158203,0,1.3544922,0.1171875,1.9160156,0.3520508    c0.5605469,0.2348633,1.0361328,0.5610352,1.4267578,0.9785156c0.3896484,0.4179688,0.6855469,0.9174805,0.8886719,1.4980469    c0.203125,0.5810547,0.3046875,1.2177734,0.3046875,1.9101562V41.8730469z M171.0437012,40.034668    c0.3017578,0,0.5810547-0.0273438,0.8349609-0.0820312c0.2548828-0.0546875,0.4960938-0.137207,0.7226562-0.2470703    c0.2265625-0.109375,0.4453125-0.2446289,0.65625-0.4052734c0.2109375-0.1601562,0.4238281-0.3505859,0.6386719-0.5698242    v-2.0498047c-0.859375,0-1.5771484,0.0541992-2.1542969,0.1621094c-0.5771484,0.1083984-1.0410156,0.246582-1.390625,0.4150391    c-0.3505859,0.168457-0.5986328,0.3647461-0.7460938,0.5888672c-0.1474609,0.2246094-0.2207031,0.46875-0.2207031,0.7333984    c0,0.5209961,0.1533203,0.8935547,0.4589844,1.1181641C170.1501465,39.9228516,170.5495605,40.034668,171.0437012,40.034668z"/>
      <path class="st0" d="M182.729248,41.8730469V29.6259766h1.7314453c0.3017578,0,0.5126953,0.0556641,0.6328125,0.1669922    c0.1191406,0.1118164,0.1982422,0.3027344,0.2382812,0.5732422l0.1787109,1.4799805    c0.4384766-0.7558594,0.9511719-1.3525391,1.5400391-1.7905273c0.5888672-0.4375,1.2490234-0.65625,1.9814453-0.65625    c0.6044922,0,1.1064453,0.1391602,1.5039062,0.4174805l-0.3818359,2.2084961    c-0.0234375,0.1430664-0.0751953,0.2446289-0.1552734,0.3041992c-0.0791016,0.0595703-0.1865234,0.0893555-0.3222656,0.0893555    c-0.1191406,0-0.2822266-0.0273438-0.4892578-0.0834961c-0.2070312-0.0551758-0.4814453-0.0834961-0.8232422-0.0834961    c-0.6132812,0-1.1386719,0.1694336-1.5761719,0.5073242c-0.4375,0.3383789-0.8076172,0.8339844-1.109375,1.4863281v7.6274414    H182.729248z"/>
      <path class="st0" d="M198.6765137,24.1352539v17.737793h-2.9482422v-17.737793H198.6765137z"/>
      <path class="st0" d="M214.6608887,41.8730469h-1.3251953c-0.2783203,0-0.4970703-0.0419922-0.65625-0.1254883    s-0.2783203-0.2524414-0.3583984-0.5073242l-0.2626953-0.8710938c-0.3105469,0.2783203-0.6142578,0.5234375-0.9130859,0.7338867    c-0.2978516,0.2109375-0.6064453,0.3881836-0.9248047,0.53125s-0.65625,0.2504883-1.0146484,0.3222656    s-0.7558594,0.1074219-1.1933594,0.1074219c-0.5175781,0-0.9951172-0.0698242-1.4326172-0.2094727    s-0.8134766-0.3491211-1.1279297-0.628418c-0.3144531-0.2797852-0.5595703-0.6269531-0.734375-1.0424805    c-0.1748047-0.4150391-0.2626953-0.8979492-0.2626953-1.4487305c0-0.4633789,0.1210938-0.9204102,0.3642578-1.371582    c0.2421875-0.4511719,0.6464844-0.8583984,1.2119141-1.2216797c0.5644531-0.3632812,1.3164062-0.6645508,2.2558594-0.9042969    c0.9384766-0.2392578,2.1044922-0.359375,3.4970703-0.359375v-0.7211914c0-0.8261719-0.1728516-1.4375-0.5195312-1.8344727    c-0.3457031-0.3969727-0.8496094-0.5952148-1.5097656-0.5952148c-0.4775391,0-0.875,0.0556641-1.1933594,0.1669922    s-0.5947266,0.2368164-0.8300781,0.3759766c-0.234375,0.1391602-0.4511719,0.2646484-0.6503906,0.3759766    s-0.4179688,0.1669922-0.65625,0.1669922c-0.1992188,0-0.3701172-0.0517578-0.5136719-0.1552734    c-0.1425781-0.1030273-0.2587891-0.2304688-0.3457031-0.3818359l-0.5371094-0.9428711    c1.4082031-1.2890625,3.1074219-1.9335938,5.0966797-1.9335938c0.7158203,0,1.3544922,0.1171875,1.9160156,0.3520508    c0.5605469,0.2348633,1.0361328,0.5610352,1.4267578,0.9785156c0.3896484,0.4179688,0.6855469,0.9174805,0.8886719,1.4980469    c0.203125,0.5810547,0.3046875,1.2177734,0.3046875,1.9101562V41.8730469z M208.9313965,40.034668    c0.3017578,0,0.5810547-0.0273438,0.8349609-0.0820312c0.2548828-0.0546875,0.4960938-0.137207,0.7226562-0.2470703    c0.2265625-0.109375,0.4453125-0.2446289,0.65625-0.4052734c0.2109375-0.1601562,0.4238281-0.3505859,0.6386719-0.5698242    v-2.0498047c-0.859375,0-1.5771484,0.0541992-2.1542969,0.1621094c-0.5771484,0.1083984-1.0410156,0.246582-1.390625,0.4150391    c-0.3505859,0.168457-0.5986328,0.3647461-0.7460938,0.5888672c-0.1474609,0.2246094-0.2207031,0.46875-0.2207031,0.7333984    c0,0.5209961,0.1533203,0.8935547,0.4589844,1.1181641C208.0378418,39.9228516,208.4372559,40.034668,208.9313965,40.034668z"/>
      <path class="st0" d="M220.6169434,41.8730469V29.6259766h1.8027344c0.3818359,0,0.6328125,0.1791992,0.7519531,0.5371094    l0.1914062,0.9072266c0.2148438-0.2387695,0.4394531-0.4575195,0.6738281-0.6567383    c0.2353516-0.1987305,0.4853516-0.3696289,0.7519531-0.5131836c0.2666016-0.1430664,0.5537109-0.2563477,0.8603516-0.3398438    c0.3056641-0.0839844,0.6416016-0.1254883,1.0078125-0.1254883c0.7724609,0,1.4072266,0.2089844,1.9042969,0.6264648    c0.4970703,0.4179688,0.8691406,0.9731445,1.1162109,1.6655273c0.1904297-0.40625,0.4296875-0.7539062,0.7158203-1.0444336    c0.2871094-0.2905273,0.6005859-0.5273438,0.9433594-0.7104492c0.3417969-0.1831055,0.7060547-0.3183594,1.0917969-0.4057617    s0.7744141-0.1313477,1.1640625-0.1313477c0.6767578,0,1.2773438,0.1035156,1.8027344,0.3100586    c0.5253906,0.2070312,0.9667969,0.5097656,1.3251953,0.9072266c0.3574219,0.3984375,0.6298828,0.8833008,0.8173828,1.456543    c0.1865234,0.5727539,0.2802734,1.2294922,0.2802734,1.9697266v7.7944336h-2.9482422v-7.7944336    c0-0.7802734-0.1708984-1.3671875-0.5136719-1.7607422c-0.3417969-0.394043-0.8427734-0.5908203-1.5039062-0.5908203    c-0.3027344,0-0.5830078,0.0517578-0.8417969,0.1547852c-0.2578125,0.1035156-0.4853516,0.2529297-0.6796875,0.4477539    c-0.1953125,0.1953125-0.3486328,0.4399414-0.4599609,0.734375s-0.1669922,0.6323242-0.1669922,1.0146484v7.7944336h-2.9599609    v-7.7944336c0-0.8198242-0.1660156-1.4165039-0.4960938-1.7905273s-0.8173828-0.5610352-1.4619141-0.5610352    c-0.421875,0-0.8173828,0.1054688-1.1875,0.315918c-0.3701172,0.2109375-0.7148438,0.4995117-1.0322266,0.8657227v8.9643555    H220.6169434z"/>
      <path class="st0" d="M248.8356934,29.4350586c0.7714844,0,1.4824219,0.1235352,2.1308594,0.3701172    s1.2070312,0.6069336,1.6767578,1.0800781c0.4697266,0.4736328,0.8359375,1.0546875,1.0986328,1.7426758    c0.2626953,0.6884766,0.3935547,1.4741211,0.3935547,2.3574219c0,0.2231445-0.0097656,0.4082031-0.0292969,0.5551758    c-0.0205078,0.1474609-0.0556641,0.2626953-0.1074219,0.3461914s-0.1220703,0.1430664-0.2089844,0.1791992    c-0.0878906,0.0356445-0.1992188,0.0537109-0.3349609,0.0537109h-7.5673828    c0.0878906,1.2573242,0.4257812,2.1806641,1.0146484,2.769043c0.5888672,0.5893555,1.3681641,0.8833008,2.3398438,0.8833008    c0.4775391,0,0.8886719-0.0551758,1.2353516-0.1669922c0.3457031-0.1113281,0.6484375-0.234375,0.9072266-0.3701172    c0.2578125-0.1352539,0.4853516-0.2583008,0.6796875-0.3696289c0.1953125-0.1118164,0.3847656-0.1674805,0.5673828-0.1674805    c0.1191406,0,0.2226562,0.0239258,0.3105469,0.0717773c0.0869141,0.0478516,0.1630859,0.1152344,0.2265625,0.203125    l0.859375,1.0742188c-0.3261719,0.3818359-0.6923828,0.7021484-1.0976562,0.9609375    c-0.40625,0.2583008-0.8300781,0.465332-1.2714844,0.6206055s-0.8916016,0.2641602-1.3486328,0.328125    c-0.4580078,0.0634766-0.9013672,0.0957031-1.3310547,0.0957031c-0.8515625,0-1.6435547-0.1416016-2.3759766-0.4238281    c-0.7314453-0.2822266-1.3681641-0.7001953-1.9091797-1.253418c-0.5419922-0.5532227-0.9667969-1.2373047-1.2773438-2.0532227    c-0.3105469-0.8154297-0.4658203-1.7607422-0.4658203-2.8349609c0-0.8354492,0.1357422-1.6210938,0.40625-2.3574219    c0.2705078-0.7358398,0.6582031-1.3764648,1.1630859-1.921875c0.5058594-0.5449219,1.1220703-0.9765625,1.8505859-1.2949219    S247.9206543,29.4350586,248.8356934,29.4350586z M248.8952637,31.5478516c-0.859375,0-1.5322266,0.2426758-2.0175781,0.7280273    s-0.7949219,1.1738281-0.9306641,2.0649414h5.5390625c0-0.3818359-0.0517578-0.7416992-0.1552734-1.0800781    s-0.2626953-0.6347656-0.4775391-0.8891602c-0.2148438-0.2548828-0.4853516-0.4555664-0.8115234-0.6030273    C249.7145996,31.621582,249.3327637,31.5478516,248.8952637,31.5478516z"/>
      <path class="st0" d="M259.5895996,41.8730469V29.6259766h1.8027344c0.3818359,0,0.6328125,0.1791992,0.7519531,0.5371094    l0.203125,0.9667969c0.2470703-0.2543945,0.5078125-0.4853516,0.7822266-0.6923828    c0.2744141-0.206543,0.5644531-0.3857422,0.8710938-0.5371094c0.3066406-0.1508789,0.6347656-0.2666016,0.984375-0.3461914    c0.3505859-0.0791016,0.7324219-0.1191406,1.1464844-0.1191406c0.6679688,0,1.2607422,0.1132812,1.7783203,0.340332    c0.5175781,0.2265625,0.9492188,0.5449219,1.2949219,0.9545898c0.3466797,0.4101562,0.609375,0.8994141,0.7880859,1.4682617    c0.1787109,0.5693359,0.2685547,1.1958008,0.2685547,1.8803711v7.7944336h-2.9482422v-7.7944336    c0-0.7480469-0.1728516-1.3271484-0.5195312-1.7368164c-0.3457031-0.4101562-0.8652344-0.6147461-1.5576172-0.6147461    c-0.5097656,0-0.9863281,0.1152344-1.4326172,0.3461914c-0.4453125,0.2304688-0.8671875,0.5449219-1.2646484,0.9428711v8.8569336    H259.5895996z"/>
      <path class="st0" d="M280.2409668,42.0639648c-1.0585938,0-1.8740234-0.300293-2.4472656-0.9013672    c-0.5732422-0.6005859-0.859375-1.4301758-0.859375-2.4887695v-6.8393555h-1.2412109    c-0.1591797,0-0.296875-0.0517578-0.4121094-0.1552734s-0.1728516-0.2587891-0.1728516-0.4658203v-1.1694336l1.9697266-0.3222656    l0.6201172-3.3422852c0.0322266-0.1591797,0.1054688-0.2827148,0.2207031-0.3701172s0.2607422-0.1313477,0.4355469-0.1313477    h1.5283203v3.8554688h3.2226562v2.1010742h-3.2226562v6.6367188c0,0.3818359,0.0957031,0.6801758,0.2861328,0.8950195    c0.1914062,0.2148438,0.4462891,0.3222656,0.7646484,0.3222656c0.1826172,0,0.3359375-0.0214844,0.4589844-0.0654297    s0.2304688-0.0893555,0.3222656-0.137207s0.1728516-0.09375,0.2451172-0.137207    c0.0712891-0.0439453,0.1425781-0.065918,0.2148438-0.065918c0.0869141,0,0.1591797,0.0219727,0.2148438,0.065918    c0.0556641,0.043457,0.1152344,0.109375,0.1787109,0.1967773l0.8837891,1.4326172    c-0.4296875,0.3579102-0.9238281,0.628418-1.4804688,0.8115234S280.8376465,42.0639648,280.2409668,42.0639648z"/>
      <path class="st0" d="M165.9226074,61.890625c0,1.265625-0.2109375,2.4375-0.6328125,3.515625    s-1.0146484,2.0112305-1.7783203,2.7988281c-0.7636719,0.7880859-1.6826172,1.402832-2.7568359,1.8442383    c-1.0751953,0.4418945-2.2646484,0.6625977-3.5693359,0.6625977c-1.3056641,0-2.4970703-0.2207031-3.5751953-0.6625977    c-1.078125-0.4414062-2.0019531-1.0561523-2.7695312-1.8442383c-0.7675781-0.7875977-1.3623047-1.7207031-1.7841797-2.7988281    s-0.6328125-2.25-0.6328125-3.515625c0-1.2651367,0.2109375-2.4370117,0.6328125-3.5151367    s1.0166016-2.0112305,1.7841797-2.7993164c0.7675781-0.7875977,1.6914062-1.4023438,2.7695312-1.8442383    c1.078125-0.4414062,2.2695312-0.6625977,3.5751953-0.6625977c1.3046875,0,2.4941406,0.2231445,3.5693359,0.668457    c1.0742188,0.4458008,1.9931641,1.0605469,2.7568359,1.8442383c0.7636719,0.7841797,1.3564453,1.715332,1.7783203,2.793457    S165.9226074,60.6254883,165.9226074,61.890625z M162.6286621,61.890625c0-0.9467773-0.1259766-1.7963867-0.3759766-2.5483398    c-0.2509766-0.7519531-0.6113281-1.390625-1.0810547-1.9160156c-0.4697266-0.5249023-1.0400391-0.9267578-1.7128906-1.2055664    c-0.671875-0.2783203-1.4306641-0.4174805-2.2734375-0.4174805c-0.84375,0-1.6035156,0.1391602-2.2802734,0.4174805    c-0.6767578,0.2788086-1.2509766,0.6806641-1.7246094,1.2055664c-0.4736328,0.5253906-0.8378906,1.1640625-1.0927734,1.9160156    c-0.2539062,0.7519531-0.3818359,1.6015625-0.3818359,2.5483398c0,0.9472656,0.1279297,1.7963867,0.3818359,2.5488281    c0.2548828,0.7519531,0.6191406,1.3886719,1.0927734,1.909668c0.4736328,0.5214844,1.0478516,0.9213867,1.7246094,1.199707    c0.6767578,0.2788086,1.4365234,0.4174805,2.2802734,0.4174805c0.8427734,0,1.6015625-0.1386719,2.2734375-0.4174805    c0.6728516-0.2783203,1.2431641-0.6782227,1.7128906-1.199707c0.4697266-0.5209961,0.8300781-1.1577148,1.0810547-1.909668    C162.5026855,63.6870117,162.6286621,62.8378906,162.6286621,61.890625z M156.2302246,50.6225586    c0,0.2148438-0.0439453,0.4179688-0.1318359,0.6088867c-0.0869141,0.190918-0.2070312,0.3579102-0.3574219,0.5009766    c-0.1513672,0.1435547-0.3261719,0.2548828-0.5253906,0.3344727s-0.4101562,0.1191406-0.6328125,0.1191406    c-0.2070312,0-0.4042969-0.0395508-0.5908203-0.1191406s-0.3525391-0.190918-0.4951172-0.3344727    c-0.1435547-0.1430664-0.2568359-0.3100586-0.3408203-0.5009766c-0.0830078-0.190918-0.125-0.394043-0.125-0.6088867    s0.0419922-0.4199219,0.125-0.6147461c0.0839844-0.1948242,0.1972656-0.3662109,0.3408203-0.5131836    c0.1425781-0.1474609,0.3085938-0.2646484,0.4951172-0.3520508c0.1865234-0.0878906,0.3837891-0.1313477,0.5908203-0.1313477    c0.2226562,0,0.4335938,0.043457,0.6328125,0.1313477c0.1992188,0.0874023,0.3740234,0.2045898,0.5253906,0.3520508    c0.1503906,0.1469727,0.2705078,0.3183594,0.3574219,0.5131836    C156.1862793,50.2026367,156.2302246,50.4077148,156.2302246,50.6225586z M161.3864746,50.6225586    c0,0.2148438-0.0410156,0.4179688-0.125,0.6088867s-0.1972656,0.3579102-0.3398438,0.5009766    c-0.1435547,0.1435547-0.3125,0.2548828-0.5078125,0.3344727s-0.4042969,0.1191406-0.6269531,0.1191406    c-0.2148438,0-0.4189453-0.0395508-0.6142578-0.1191406s-0.3662109-0.190918-0.5136719-0.3344727    c-0.1474609-0.1430664-0.2626953-0.3100586-0.3457031-0.5009766c-0.0839844-0.190918-0.125-0.394043-0.125-0.6088867    s0.0410156-0.4199219,0.125-0.6147461c0.0830078-0.1948242,0.1982422-0.3662109,0.3457031-0.5131836    c0.1474609-0.1474609,0.3183594-0.2646484,0.5136719-0.3520508c0.1953125-0.0878906,0.3994141-0.1313477,0.6142578-0.1313477    c0.2226562,0,0.4316406,0.043457,0.6269531,0.1313477c0.1953125,0.0874023,0.3642578,0.2045898,0.5078125,0.3520508    c0.1425781,0.1469727,0.2558594,0.3183594,0.3398438,0.5131836S161.3864746,50.4077148,161.3864746,50.6225586z"/>
      <path class="st0" d="M177.9431152,60.6611328c-0.0791016,0.1274414-0.1630859,0.2172852-0.25,0.2685547    c-0.0878906,0.0522461-0.1992188,0.0776367-0.3349609,0.0776367c-0.1425781,0-0.2958984-0.0395508-0.4589844-0.1191406    s-0.3525391-0.1689453-0.5673828-0.2685547s-0.4589844-0.1889648-0.7333984-0.2685547    c-0.2753906-0.0795898-0.5996094-0.1196289-0.9736328-0.1196289c-0.5810547,0-1.0380859,0.1235352-1.3720703,0.3701172    c-0.3349609,0.246582-0.5019531,0.5688477-0.5019531,0.9667969c0,0.2626953,0.0859375,0.4833984,0.2568359,0.6625977    s0.3974609,0.3364258,0.6806641,0.4716797c0.2822266,0.1352539,0.6025391,0.2563477,0.9609375,0.3637695    c0.3574219,0.1074219,0.7236328,0.2250977,1.0976562,0.3520508c0.3740234,0.1274414,0.7402344,0.2729492,1.0986328,0.4360352    s0.6777344,0.3701172,0.9609375,0.6206055c0.2822266,0.2504883,0.5087891,0.5512695,0.6806641,0.9013672    c0.1708984,0.3500977,0.2558594,0.7719727,0.2558594,1.2651367c0,0.5888672-0.1074219,1.1323242-0.3222656,1.6293945    c-0.2148438,0.4975586-0.5292969,0.9272461-0.9423828,1.2890625c-0.4140625,0.3623047-0.9257812,0.6445312-1.5341797,0.8476562    c-0.6083984,0.2026367-1.3066406,0.3041992-2.0947266,0.3041992c-0.421875,0-0.8339844-0.0375977-1.2353516-0.1132812    c-0.4023438-0.0756836-0.7880859-0.1811523-1.1582031-0.3164062s-0.7119141-0.2944336-1.0263672-0.4775391    s-0.5908203-0.3818359-0.8300781-0.5966797l0.6806641-1.1220703c0.0878906-0.1352539,0.1914062-0.2387695,0.3105469-0.3105469    c0.1191406-0.0712891,0.2705078-0.1074219,0.453125-0.1074219c0.1835938,0,0.3564453,0.0522461,0.5195312,0.1552734    c0.1630859,0.1035156,0.3525391,0.2148438,0.5673828,0.3344727c0.2148438,0.1191406,0.4667969,0.230957,0.7578125,0.3339844    c0.2900391,0.1035156,0.6582031,0.1552734,1.1044922,0.1552734c0.3496094,0,0.6503906-0.0419922,0.9003906-0.1254883    c0.2509766-0.0834961,0.4580078-0.1928711,0.6210938-0.328125s0.2822266-0.2924805,0.3583984-0.4716797    c0.0751953-0.1787109,0.1132812-0.3637695,0.1132812-0.5546875c0-0.2866211-0.0859375-0.5214844-0.2568359-0.7045898    c-0.1708984-0.1826172-0.3984375-0.3417969-0.6806641-0.4775391c-0.2822266-0.1352539-0.6044922-0.2563477-0.9667969-0.3637695    s-0.7324219-0.2250977-1.1103516-0.3520508c-0.3779297-0.1274414-0.7480469-0.2763672-1.109375-0.4477539    c-0.3623047-0.1708984-0.6845703-0.3881836-0.9667969-0.6503906c-0.2832031-0.2626953-0.5097656-0.5849609-0.6806641-0.9672852    c-0.1708984-0.3818359-0.2568359-0.8432617-0.2568359-1.3842773c0-0.5014648,0.0996094-0.9790039,0.2988281-1.4326172    c0.1982422-0.4536133,0.4912109-0.8491211,0.8769531-1.1875s0.8671875-0.6088867,1.4443359-0.8120117    c0.5771484-0.2026367,1.2431641-0.3041992,1.9990234-0.3041992c0.84375,0,1.6123047,0.1391602,2.3046875,0.4174805    c0.6914062,0.2788086,1.2685547,0.6450195,1.7304688,1.0986328L177.9431152,60.6611328z"/>
      <path class="st0" d="M187.5163574,70.7119141c-1.0585938,0-1.8740234-0.300293-2.4472656-0.9013672    c-0.5732422-0.6005859-0.859375-1.4301758-0.859375-2.4887695v-6.8393555h-1.2412109    c-0.1591797,0-0.296875-0.0517578-0.4121094-0.1552734s-0.1728516-0.2587891-0.1728516-0.4658203v-1.1694336l1.9697266-0.3222656    l0.6201172-3.3422852c0.0322266-0.1591797,0.1054688-0.2827148,0.2207031-0.3701172s0.2607422-0.1313477,0.4355469-0.1313477    h1.5283203v3.8554688h3.2226562v2.1010742h-3.2226562v6.6367188c0,0.3818359,0.0957031,0.6801758,0.2861328,0.8950195    c0.1914062,0.2148438,0.4462891,0.3222656,0.7646484,0.3222656c0.1826172,0,0.3359375-0.0214844,0.4589844-0.0654297    s0.2304688-0.0893555,0.3222656-0.137207s0.1728516-0.09375,0.2451172-0.137207    c0.0712891-0.0439453,0.1425781-0.065918,0.2148438-0.065918c0.0869141,0,0.1591797,0.0219727,0.2148438,0.065918    c0.0556641,0.043457,0.1152344,0.109375,0.1787109,0.1967773l0.8837891,1.4326172    c-0.4296875,0.3579102-0.9238281,0.628418-1.4804688,0.8115234S188.1130371,70.7119141,187.5163574,70.7119141z"/>
      <path class="st0" d="M200.1813965,58.0830078c0.7714844,0,1.4824219,0.1235352,2.1308594,0.3701172    s1.2070312,0.6069336,1.6767578,1.0800781c0.4697266,0.4736328,0.8359375,1.0546875,1.0986328,1.7426758    c0.2626953,0.6884766,0.3935547,1.4741211,0.3935547,2.3574219c0,0.2231445-0.0097656,0.4082031-0.0292969,0.5551758    c-0.0205078,0.1474609-0.0556641,0.2626953-0.1074219,0.3461914s-0.1220703,0.1430664-0.2089844,0.1791992    c-0.0878906,0.0356445-0.1992188,0.0537109-0.3349609,0.0537109h-7.5673828    c0.0878906,1.2573242,0.4257812,2.1806641,1.0146484,2.769043c0.5888672,0.5893555,1.3681641,0.8833008,2.3398438,0.8833008    c0.4775391,0,0.8886719-0.0551758,1.2353516-0.1669922c0.3457031-0.1113281,0.6484375-0.234375,0.9072266-0.3701172    c0.2578125-0.1352539,0.4853516-0.2583008,0.6796875-0.3696289c0.1953125-0.1118164,0.3847656-0.1674805,0.5673828-0.1674805    c0.1191406,0,0.2226562,0.0239258,0.3105469,0.0717773c0.0869141,0.0478516,0.1630859,0.1152344,0.2265625,0.203125    l0.859375,1.0742188c-0.3261719,0.3818359-0.6923828,0.7021484-1.0976562,0.9609375    c-0.40625,0.2583008-0.8300781,0.465332-1.2714844,0.6206055s-0.8916016,0.2641602-1.3486328,0.328125    c-0.4580078,0.0634766-0.9013672,0.0957031-1.3310547,0.0957031c-0.8515625,0-1.6435547-0.1416016-2.3759766-0.4238281    c-0.7314453-0.2822266-1.3681641-0.7001953-1.9091797-1.253418c-0.5419922-0.5532227-0.9667969-1.2373047-1.2773438-2.0532227    c-0.3105469-0.8154297-0.4658203-1.7607422-0.4658203-2.8349609c0-0.8354492,0.1357422-1.6210938,0.40625-2.3574219    c0.2705078-0.7358398,0.6582031-1.3764648,1.1630859-1.921875c0.5058594-0.5449219,1.1220703-0.9765625,1.8505859-1.2949219    S199.2663574,58.0830078,200.1813965,58.0830078z M200.2409668,60.1958008c-0.859375,0-1.5322266,0.2426758-2.0175781,0.7280273    s-0.7949219,1.1738281-0.9306641,2.0649414h5.5390625c0-0.3818359-0.0517578-0.7416992-0.1552734-1.0800781    s-0.2626953-0.6347656-0.4775391-0.8891602c-0.2148438-0.2548828-0.4853516-0.4555664-0.8115234-0.6030273    C201.0603027,60.2695312,200.6784668,60.1958008,200.2409668,60.1958008z"/>
      <path class="st0" d="M210.267334,70.5209961V58.2739258h1.7314453c0.3017578,0,0.5126953,0.0556641,0.6328125,0.1669922    c0.1191406,0.1118164,0.1982422,0.3027344,0.2382812,0.5732422l0.1787109,1.4799805    c0.4384766-0.7558594,0.9511719-1.3525391,1.5400391-1.7905273c0.5888672-0.4375,1.2490234-0.65625,1.9814453-0.65625    c0.6044922,0,1.1064453,0.1391602,1.5039062,0.4174805l-0.3818359,2.2084961    c-0.0234375,0.1430664-0.0751953,0.2446289-0.1552734,0.3041992c-0.0791016,0.0595703-0.1865234,0.0893555-0.3222656,0.0893555    c-0.1191406,0-0.2822266-0.0273438-0.4892578-0.0834961c-0.2070312-0.0551758-0.4814453-0.0834961-0.8232422-0.0834961    c-0.6132812,0-1.1386719,0.1694336-1.5761719,0.5073242c-0.4375,0.3383789-0.8076172,0.8339844-1.109375,1.4863281v7.6274414    H210.267334z"/>
      <path class="st0" d="M222.4060059,70.5209961V58.2739258h1.7314453c0.3017578,0,0.5126953,0.0556641,0.6328125,0.1669922    c0.1191406,0.1118164,0.1982422,0.3027344,0.2382812,0.5732422l0.1787109,1.4799805    c0.4384766-0.7558594,0.9511719-1.3525391,1.5400391-1.7905273c0.5888672-0.4375,1.2490234-0.65625,1.9814453-0.65625    c0.6044922,0,1.1064453,0.1391602,1.5039062,0.4174805l-0.3818359,2.2084961    c-0.0234375,0.1430664-0.0751953,0.2446289-0.1552734,0.3041992c-0.0791016,0.0595703-0.1865234,0.0893555-0.3222656,0.0893555    c-0.1191406,0-0.2822266-0.0273438-0.4892578-0.0834961c-0.2070312-0.0551758-0.4814453-0.0834961-0.8232422-0.0834961    c-0.6132812,0-1.1386719,0.1694336-1.5761719,0.5073242c-0.4375,0.3383789-0.8076172,0.8339844-1.109375,1.4863281v7.6274414    H222.4060059z"/>
      <path class="st0" d="M239.6071777,58.0830078c0.7714844,0,1.4824219,0.1235352,2.1308594,0.3701172    s1.2070312,0.6069336,1.6767578,1.0800781c0.4697266,0.4736328,0.8359375,1.0546875,1.0986328,1.7426758    c0.2626953,0.6884766,0.3935547,1.4741211,0.3935547,2.3574219c0,0.2231445-0.0097656,0.4082031-0.0292969,0.5551758    c-0.0205078,0.1474609-0.0556641,0.2626953-0.1074219,0.3461914s-0.1220703,0.1430664-0.2089844,0.1791992    c-0.0878906,0.0356445-0.1992188,0.0537109-0.3349609,0.0537109h-7.5673828    c0.0878906,1.2573242,0.4257812,2.1806641,1.0146484,2.769043c0.5888672,0.5893555,1.3681641,0.8833008,2.3398438,0.8833008    c0.4775391,0,0.8886719-0.0551758,1.2353516-0.1669922c0.3457031-0.1113281,0.6484375-0.234375,0.9072266-0.3701172    c0.2578125-0.1352539,0.4853516-0.2583008,0.6796875-0.3696289c0.1953125-0.1118164,0.3847656-0.1674805,0.5673828-0.1674805    c0.1191406,0,0.2226562,0.0239258,0.3105469,0.0717773c0.0869141,0.0478516,0.1630859,0.1152344,0.2265625,0.203125    l0.859375,1.0742188c-0.3261719,0.3818359-0.6923828,0.7021484-1.0976562,0.9609375    c-0.40625,0.2583008-0.8300781,0.465332-1.2714844,0.6206055s-0.8916016,0.2641602-1.3486328,0.328125    c-0.4580078,0.0634766-0.9013672,0.0957031-1.3310547,0.0957031c-0.8515625,0-1.6435547-0.1416016-2.3759766-0.4238281    c-0.7314453-0.2822266-1.3681641-0.7001953-1.9091797-1.253418c-0.5419922-0.5532227-0.9667969-1.2373047-1.2773438-2.0532227    c-0.3105469-0.8154297-0.4658203-1.7607422-0.4658203-2.8349609c0-0.8354492,0.1357422-1.6210938,0.40625-2.3574219    c0.2705078-0.7358398,0.6582031-1.3764648,1.1630859-1.921875c0.5058594-0.5449219,1.1220703-0.9765625,1.8505859-1.2949219    S238.6921387,58.0830078,239.6071777,58.0830078z M239.666748,60.1958008c-0.859375,0-1.5322266,0.2426758-2.0175781,0.7280273    s-0.7949219,1.1738281-0.9306641,2.0649414h5.5390625c0-0.3818359-0.0517578-0.7416992-0.1552734-1.0800781    s-0.2626953-0.6347656-0.4775391-0.8891602c-0.2148438-0.2548828-0.4853516-0.4555664-0.8115234-0.6030273    C240.486084,60.2695312,240.104248,60.1958008,239.666748,60.1958008z"/>
      <path class="st0" d="M253.2731934,54.7050781c0,0.2543945-0.0517578,0.4931641-0.1542969,0.7158203    c-0.1035156,0.2231445-0.2412109,0.4179688-0.4121094,0.5849609c-0.171875,0.1669922-0.3720703,0.3007812-0.6025391,0.3999023    c-0.2314453,0.0996094-0.4775391,0.1494141-0.7402344,0.1494141c-0.2548828,0-0.4960938-0.0498047-0.7226562-0.1494141    c-0.2265625-0.0991211-0.4238281-0.2329102-0.5908203-0.3999023s-0.3007812-0.3618164-0.3994141-0.5849609    c-0.0996094-0.2226562-0.1494141-0.4614258-0.1494141-0.7158203c0-0.2626953,0.0498047-0.5092773,0.1494141-0.7402344    c0.0986328-0.230957,0.2324219-0.4296875,0.3994141-0.5966797c0.1669922-0.1674805,0.3642578-0.300293,0.5908203-0.3999023    s0.4677734-0.1494141,0.7226562-0.1494141c0.2626953,0,0.5087891,0.0498047,0.7402344,0.1494141    c0.2304688,0.0996094,0.4306641,0.2324219,0.6025391,0.3999023c0.1708984,0.1669922,0.3085938,0.3657227,0.4121094,0.5966797    C253.2214355,54.1958008,253.2731934,54.4423828,253.2731934,54.7050781z M252.8317871,58.2739258v12.2470703h-2.9482422    V58.2739258H252.8317871z"/>
      <path class="st0" d="M267.1560059,60.8642578c-0.0869141,0.1113281-0.1728516,0.1987305-0.2558594,0.2626953    c-0.0839844,0.0634766-0.2050781,0.0952148-0.3642578,0.0952148c-0.1513672,0-0.2988281-0.0454102-0.4414062-0.137207    c-0.1435547-0.0913086-0.3144531-0.1948242-0.5136719-0.3100586c-0.1992188-0.1157227-0.4355469-0.2192383-0.7099609-0.3105469    s-0.6152344-0.137207-1.0205078-0.137207c-0.5175781,0-0.9716797,0.09375-1.3613281,0.2802734    c-0.3896484,0.1870117-0.7138672,0.4555664-0.9726562,0.8056641c-0.2587891,0.3505859-0.4521484,0.7744141-0.5791016,1.2714844    c-0.1269531,0.4975586-0.1904297,1.0605469-0.1904297,1.6889648c0,0.652832,0.0693359,1.2333984,0.2080078,1.7426758    c0.1396484,0.5092773,0.3408203,0.9370117,0.6035156,1.2832031s0.5800781,0.6088867,0.9550781,0.7880859    c0.3730469,0.1787109,0.7949219,0.2685547,1.2646484,0.2685547s0.8496094-0.0576172,1.140625-0.1733398    c0.2900391-0.1152344,0.5341797-0.2426758,0.7333984-0.3818359s0.3720703-0.2666016,0.5195312-0.3818359    s0.3125-0.1733398,0.4951172-0.1733398c0.2392578,0,0.4179688,0.0917969,0.5371094,0.2749023l0.8476562,1.0742188    c-0.3261719,0.3818359-0.6806641,0.7021484-1.0625,0.9609375c-0.3818359,0.2583008-0.7773438,0.465332-1.1875,0.6206055    s-0.8339844,0.2641602-1.2714844,0.328125c-0.4375,0.0634766-0.8710938,0.0957031-1.3007812,0.0957031    c-0.7558594,0-1.46875-0.1416016-2.1367188-0.4238281s-1.2519531-0.6943359-1.7490234-1.2353516    s-0.890625-1.2036133-1.1816406-1.987793c-0.2900391-0.7836914-0.4355469-1.6767578-0.4355469-2.6796875    c0-0.8989258,0.1289062-1.7324219,0.3876953-2.5004883s0.6386719-1.4326172,1.140625-1.9936523    c0.5009766-0.5610352,1.1220703-1.0004883,1.8613281-1.3188477c0.7402344-0.3183594,1.5917969-0.4775391,2.5546875-0.4775391    c0.9150391,0,1.7167969,0.1474609,2.4052734,0.4414062c0.6884766,0.2949219,1.3076172,0.7163086,1.8564453,1.265625    L267.1560059,60.8642578z"/>
      <path class="st0" d="M272.3249512,70.5209961v-17.737793h2.9492188v6.815918    c0.4775391-0.4536133,1.0019531-0.8198242,1.5751953-1.0986328c0.5732422-0.2783203,1.2451172-0.4174805,2.0175781-0.4174805    c0.6679688,0,1.2607422,0.1132812,1.7783203,0.340332c0.5175781,0.2265625,0.9492188,0.5449219,1.2949219,0.9545898    c0.3466797,0.4101562,0.609375,0.8994141,0.7880859,1.4682617c0.1787109,0.5693359,0.2685547,1.1958008,0.2685547,1.8803711    v7.7944336h-2.9482422v-7.7944336c0-0.7480469-0.1728516-1.3271484-0.5195312-1.7368164    c-0.3457031-0.4101562-0.8652344-0.6147461-1.5576172-0.6147461c-0.5097656,0-0.9863281,0.1152344-1.4326172,0.3461914    c-0.4453125,0.2304688-0.8671875,0.5449219-1.2646484,0.9428711v8.8569336H272.3249512z"/>
    </g>
    <path class="st0" d="M94.0693588,71.9483719h-6.6213303V34.6979828h6.6213303V71.9483719z M77.5239105,71.9483719h-6.6213303   V34.6979828h6.6213303V71.9483719z M36.9254303,71.9483719h-6.6232986V34.6979828h6.6232986V71.9483719z M20.3760433,71.9483719   H13.754715V34.6979828h6.6213284V71.9483719z M107.8477173,19.3657169l0.0787659-0.1969433v-4.8468428l-1.798111,0.0098419   l-1.7961578,1.2447071v1.2860575L57.2049789,5.4219394V2.2491369L53.9573326,0l-3.2476387,2.2491369v3.1728024L3.592293,16.860569   v-1.2840891l-1.7961465-1.2447071L0,14.3219309v4.8468428l0.0689309,0.1969433l3.7990856,5.4731464L3.7951488,72.5825348   L0,74.6268463v3.6041107h50.3118629c-0.3682899-2.0955048-2.3416901-14.2785988-1.4475555-29.6305504   c0,0-1.0989571-1.1285057-1.1147118-2.4303169c-0.71492,0.1083221-0.4825249,0.1201401-1.2466774,0.3919258   c-0.6341629,0.224514-1.3569527,0.551445-1.8768959,0.7641525c-0.7188492,0.2914772-1.8552284,0.0610504-2.1821594-0.3820763   c-0.1575584-0.2107353-0.2422447-0.3643532-0.2776909-0.4844933c-0.2816353-0.5159912-0.4608574-1.3805923-0.4608574-2.6646729   c0-0.8094559,0.1575546-1.6760178,0.3623772-2.4638062c-0.5593185-0.4470596-1.0359306-1.1383438-1.2506027-2.1388321   c-0.4116173-1.9044647-0.458889-3.7951393-0.458889-3.7951393s1.2525826,1.790226,2.0344582,3.483963   c0.1457405-0.1811867,0.3663216-0.2973824,0.6164398-0.2973824c0.2481499,0,0.4667625,0.1142273,0.6144714,0.2934456   c0.7799072-1.6917686,2.0285454-3.4800262,2.0285454-3.4800262s-0.0118179,1.8138618-0.421463,3.716362   c-0.2166405,1.0024605-0.7287025,1.7725182-1.2880325,2.2195854c0.2048264,0.7858124,0.3643532,1.6523743,0.3643532,2.4618301   c0,0.4116135-0.0196915,0.775959-0.0531769,1.1048622c0,0,1.1442604,0.0925636,2.1408081-0.6400719   c1.0713844-0.6814346,1.3451424-1.039875,1.3451424-1.039875s0.3387489-1.337265,0.7030945-2.4106255   c0.6065979-1.7862968,0.8783836-3.5863876,2.1467133-4.7247353c0.6400757-0.5770416,1.5283051-0.6755219,2.3909264-0.6755219   c1.0339699-0.2954216,0.9512558-1.9458275,0.8350525-2.7946625c-0.5888672-0.4372215-0.9000473-1.3057594-0.9926033-2.353508   c-0.0196991-0.2205791-0.0177307-0.4273777,0.0019684-0.6203842h-0.0019684l-0.7838516-1.353014   c0,0,0.2028542-0.9945869,0.59478-1.5361919c0.5415993-0.7483902,0.7286987-0.8212662,0.7286987-0.8212662   s0.2737541-0.9709358,0.0846863-1.934c-0.2717857-1.3746796-1.508606-2.7375507-1.508606-2.7375507l3.5076065-0.6125107   c0,0,2.123085,1.5420971,2.5878792,4.3347912c0.3584404,2.1506443-0.4884262,4.9256229-0.4155617,5.3470821   c0.161499,0.8350582,1.272274,1.6641979,1.2348518,2.4007759c-0.0393829,0.7759628-0.515995,0.9748917-0.515995,0.9748917   s0.7956619-0.161499,1.3156013-0.1811981c1.3274155-0.0531769,2.2195816,0.0078735,3.0270576-0.1831627l1.1088066-7.3579102   c-0.2717857-0.4076805-0.5671997-1.5657177-0.324955-2.71982c0.1614914-0.7680893,0.6046219-0.8449001,0.8685303-0.8902035   l1.0871429-7.2082214l-0.2993546-1.6819277l1.4396744-3.8562069l0.2146683,0.0315247l0.2186127,4.1220722l-0.726738,1.4239197   l-1.2545395,8.3170366c0.2993622,0.7897549,0.6558304,1.8552341,0.683403,2.6371174   c0.0551453,1.5873852,0.33284,5.5204029,0.0256042,6.8379726c-0.3072433,1.3175659-0.4884262,2.0344467-0.7090073,2.7375488   c-0.1083221,0.3505592-0.8803558,0.7542953-1.628746,1.0713768c-0.6006851,2.4047127-2.4736443,10.6331291-2.7828522,21.0929337   c-0.2836037,9.5578003,0.9670067,18.5208206,1.2387962,20.3346939h46.0834236v-3.6041107l-3.8739243-2.0443115V24.8388634   L107.8477173,19.3657169z"/>
  </g>
</svg>