<svg version="1.2" xmlns="http://www.w3.org/2000/svg" viewBox="0 0 512 512" width="32" height="32">
	<title>file-svg</title>
	<style>
		.s0 { fill: #ffffff }
		.s1 { fill: #000000 }
	</style>
	<path id="Shape 1" class="s0" d="m0 0h512v512h-512z" />
	<g id="layer1">
		<g id="g113">
			<path id="path2" fill-rule="evenodd" class="s1"
				d="m486.4 461.5c0 6.8-10.5 12.1-23.4 12.1h-163.6c-89.2 0-178.5-2.9-267.3-8.9-2.9-0.4-4.5-1.6-4.5-3.2-5.6-2.9-4.4-16.2 2-31.1 4.1-7.3 7.3-15.4 11.7-23.1 1.3-2 2.5-3.6 3.7-5.6l3.6-6.5c2-4 5.3-6.4 8.9-7.6 1.6-0.5 3.6-0.9 5.7-0.9 1.6 0 2 0 3.2 0 6-1.2 12.1-1.6 18.6-2v-67c0-35.2 2.4-70.7 6.8-105.4-2.4 0-4.8 0-7.6 0.4-6.1 0.4-11.8 1.2-19.4 0-2.9-0.4-5.7-1.2-8.1-2.4-2.8-0.4-5.3-2.1-6.9-3.7-4-3.6-4.8-9.3-4.4-15.3l0.4-3.7v-6l-0.4-9.3c0-1.6 0.4-5.3 1.2-7.7 0.4-2.8 2-5.6 3.6-8.1 4.1-4.4 5.7-5.6 8.9-8 10.1-8.5 21.4-13 31.1-17.8 40-22.2 79.6-44.4 119.2-66.2 9.2-5.3 18.5-12.6 29.4-18.2 5.3-3.2 10.9-6.1 18.2-6.9 3.6-0.8 8.1-0.4 11.7 0.8 2.8 0.8 5.7 2.5 8.9 3.7 10.9 6 19.8 13.7 29.1 19.8 4.4 2.8 9.7 6 14.1 8.8l14.6 9.3c38.7 24.3 77.5 48.9 115.9 73.5 4.8 2.9 6.8 5.7 6 7.3q4.1 0 7.7 10.1c1.2 3.6 2.4 7.7 3.2 12.5l0.4 2c0.4 0.4 0.4 0.8 0.4 2.5 0 2 0.4 4.4 0 6.8-0.4 0.8-0.4 2.4-0.8 3.3-0.4 1.2-0.4 2.4-0.8 3.6-0.4 0.4-0.4 1.2-0.8 1.6l-0.8 1.2-2.4 2.8c-1.2 0.9-2.4 1.7-4.1 2.5-1.6 0.8-3.2 0.8-4.8 0.8-3.6 0.4-8.9 0-10.1 0l-14.9-0.8v69c0 36.4-2.5 73.1-7.7 109.5h4.4c4.9 0.4 10.5 0.8 15 0.8 2.8 0 5.6 0 8.9 0.4 2.8 0 6.8 1.6 10.1 4.4 2.8 2.5 4.4 4.9 5.6 7.7 1.2 2.8 2.4 5.7 3.6 8.1 1.7 4.8 3.7 10.1 5.3 14.9 0.8 2.4 2 4.5 2.8 6.9l9.7 21.8c1.6 3.2 1.2 5.2-0.8 6.5zm-341.7-76.4l17.4 0.8q7.9 0 15.8 0v-69c0-35.2 2.8-70.7 7.2-105.4h-33.5v69c0 34.8-2 69.9-6.9 104.6zm-15.3-104.6v-69h-28.7c4.5 34.7 7.3 70.2 7.3 105.4v67q3.6 0 7.3 0l21 0.8c-4.5-34.7-6.9-69.8-6.9-104.2zm70.7 36.4v69q4.4 0 8.8 0c6.5 0 13.8 0 20.2 0-4.4-35.1-6.8-70.2-6.8-105.4v-69h-29.1c4.8 34.7 6.9 70.2 6.9 105.4zm37.1 69c11.3 0.4 22.6 0.4 33.5 0.4v-69.4c0-35.2 2.5-70.7 6.9-105.4h-33.1v69c0 35.2-2.8 70.3-7.3 105.4zm55.8-68.6v69.4c9.6 0 19.3 0 29 0.4-4.4-35.5-7.2-71-7.2-106.6v-69h-28.7c4.8 34.7 6.9 70.2 6.9 105.8zm36.7 69.4c1.2 0 2.4 0 3.2 0q15.4 0.9 30.7 1.3c0 0 0-70.7 0-71.1 0-35.2 2.5-70.7 6.9-105.4h-33.5v69c0 35.6-2.4 71.1-7.3 106.2zm56.5-69.4c0 0.4 0 71.5 0 71.9 2.9 0 6.1 0 9.3 0l19.8 0.8c-5.2-36.8-7.7-73.1-7.7-109.5v-69h-29c4.8 34.7 7.2 70.2 7.6 105.8zm-285.9-130.1h337.2c1.7 0 2.5 0.4 3.7 0.4l4.8 0.4c2.8 0.4 1.6 0.4 2 0.4l0.4 0.4c0 0 0 0 0.4 0 0 0 0.4-0.4 0.4-0.8 0.5 0 0.5-0.8 0.5-1.2l0.4-1.6c0.4-4.4 1.2-8.9 1.6-12.1 1.2-5.3 2.8-9.3 4.4-10.5-1.6 0-4-1.2-7.3-2.8q-59.3-33.5-119.1-67.1l-14.9-8.5c-4.5-2.8-9.3-5.2-15-8.4-9.7-6.1-19-13-28.3-17.4-2-1.2-4.4-2-6.4-2.4-2-0.4-2.8-0.4-5.3 0-3.6 0.4-8.4 2.4-12.9 5.2-9.3 5.7-17.8 13-28.7 19.4l-59.3 34.7-29.5 17.8-15 8.5-7.2 4.4c-2.9 1.7-5.3 2.9-8.1 4.5-10.5 5.2-20.2 9.7-27.9 16.1-0.4 0.4-1.6 1.7-2.4 2.5-0.8 0.4-1.6 1.2-1.2 1.2v1.2l0.4 8.9v8c3.6 0.9 8.9 0.4 14.5-0.4 2.9-0.4 5.7-0.4 9.3-0.4zm199.9 260.9h164c5.7 0 10.9 1.6 15.4 3.3l-4.9-8.1-3.6-6.9c-1.2-2-2.9-4.8-3.7-6.8-2.4-4.9-4.4-9.7-6.8-14.2-0.8-2-2-4-3.7-6.4-1.2-2.1-2.8-3.7-3.6-4.5-0.8-0.4-2-0.8-4-0.8-2.1 0-4.5 0-7.3 0.4-5.7 0.4-10.1 0.4-15.8 0.4l-31.1 1.2c-20.5 0.4-41.1 1.2-61.7 1.6-41.2 1.3-82.8 1.7-124.4 1.7-15.8 0-31.1 0-47.3 0l-46.8-2.1c-15.8 0-30.7 0-45.7 2.1l-2.8 0.4-2.4 4.4q-1.6 2.4-2.8 4.9c-4.1 6.8-7.3 14.1-11 21.8-3.2 7.2-7.6 13.3-11.7 16.9 86.9-5.6 174.5-8.5 261.7-8.5zm-170.8-285.9c-1.2-3.6-1.6-7.7-2.4-11.3l46.8-26.3 55.4-30.2 6.4-3.3c1.6-1.2 4.1-2.8 6.1-4.4 2.4-1.2 4.8-2.8 7.3-4.5 2.4-0.8 7.2-3.2 11.7-3.2 2 0 4.4 0.8 6.8 2 1.2 1.2 1.6 1.2 2.5 1.6l2.4 1.7c2.4 2 4.8 4 6.8 5.2q0.6 0.6 1.3 1.2l2 0.8 10.9 7.3 29.5 19.4c18.1 11.7 35.9 23.8 53.7 35.9 2.4 0.8 4 2 5.2 3.3 2 1.6 2.4 3.6 2 4.4 0 6.5-12.5 12.1-27.8 12.1h-224.6zm46.5-12.1c0.4 0 180.1 0 180.1 0q-19.4-10.3-38.8-20.6l-42-22.6-1.6-0.8c-0.8-0.4-1.6-1.2-2.4-1.6-2.8-1.6-4.9-3.3-7.3-4.5l-1.6-1.2c-0.4-0.4-1.2-0.8-1.2-0.8-0.4-0.4-0.8-0.4-0.8-0.4-0.8 0-0.8 0-2.8 1.6-1.7 0.8-4.1 2.8-6.1 4.1-2 1.2-4 3.2-6.5 4.8-1.6 0.8-2.8 1.6-4 2.4l-3.2 2-54.2 32.4-6.4 4-1.2 0.8c-0.4 0-0.4 0 0 0.4zm0-0.4z" />
		</g>
	</g>
</svg>